<svg width="106" height="28" viewBox="0 0 106 28" fill="none" xmlns="http://www.w3.org/2000/svg">
<g clip-path="url(#clip0_13_29)">
<path d="M29.1082 6.03986L29.914 6.62069C31.3154 7.74606 32.1212 9.01663 32.2964 10.4687C33.803 10.1783 35.7299 10.3961 36.5708 10.9769L37.3416 11.4489L37.2015 11.7393C36.9562 12.2838 36.8861 12.429 36.8511 12.5016C35.4847 15.2243 32.7869 15.2606 31.5256 15.2243C28.3374 23.1745 21.5404 27.567 12.361 27.567C8.12161 27.567 4.8983 26.2238 2.72607 23.5738C-0.146882 20.0888 -0.146882 15.551 0.0983693 14.0989L0.168441 13.8085H25.4994C26.8308 13.8085 27.8469 13.4455 28.3374 13.1551C27.8118 12.3564 27.6366 11.4489 27.6016 10.9406C27.4965 9.48856 27.8469 7.96387 28.5476 6.87481L29.1082 6.03986ZM51.0565 7.72549C51.3391 7.72549 51.5784 7.81982 51.7743 8.00847C51.9702 8.19712 52.0682 8.43533 52.0682 8.72311V17.7017C52.0682 19.1981 51.5415 20.4643 50.488 21.5003C49.4216 22.5491 48.1498 23.0735 46.6723 23.0735C45.182 23.0735 43.9101 22.5491 42.8567 21.5003C41.8032 20.4515 41.2764 19.1853 41.2764 17.7017C41.2764 16.218 41.8032 14.9518 42.8567 13.903C43.9101 12.8543 45.182 12.3299 46.6723 12.3299C47.9506 12.3299 49.078 12.7232 50.0544 13.5098V8.72311C50.0544 8.43533 50.1491 8.19712 50.3386 8.00847C50.5281 7.81982 50.7674 7.72549 51.0565 7.72549ZM58.6111 12.3299C60.0885 12.3299 61.3604 12.8543 62.4267 13.903C62.9535 14.4274 63.3469 15.0062 63.6071 15.6393C63.8673 16.2724 64.0005 16.9598 64.007 17.7017C64.007 19.1981 63.4802 20.4643 62.4267 21.5003C61.3604 22.5491 60.0885 23.0735 58.6111 23.0735C57.1208 23.0735 55.8489 22.5491 54.7954 21.5003C53.7419 20.4515 53.2152 19.1853 53.2152 17.7017C53.2152 16.218 53.7419 14.9518 54.7954 13.903C55.8489 12.8543 57.1208 12.3299 58.6111 12.3299ZM70.5306 12.3299C71.886 12.3299 73.0583 12.7647 74.0475 13.6345C74.2788 13.8391 74.3944 14.0917 74.3944 14.3923C74.3944 14.68 74.2997 14.9198 74.1102 15.1117C73.9207 15.3035 73.6814 15.3995 73.3923 15.3995C73.1482 15.3995 72.9298 15.3227 72.7371 15.1693C72.4095 14.8943 72.0658 14.6864 71.7061 14.5457C71.3464 14.4051 70.9545 14.3347 70.5306 14.3347C70.0616 14.3347 69.6216 14.4226 69.2105 14.5985C68.7994 14.7744 68.4397 15.0142 68.1313 15.3179C67.823 15.6217 67.5805 15.9782 67.4039 16.3875C67.2272 16.7968 67.1389 17.2348 67.1389 17.7017C67.1389 18.1685 67.2272 18.6066 67.4039 19.0158C67.5805 19.4251 67.823 19.7816 68.1313 20.0854C68.4397 20.3892 68.7994 20.629 69.2105 20.8048C69.6216 20.9807 70.0616 21.0686 70.5306 21.0686C70.9545 21.0686 71.3464 20.9999 71.7061 20.8624C72.0658 20.7249 72.4063 20.5187 72.7275 20.2437C72.9073 20.1094 73.1193 20.039 73.3634 20.0326C73.6525 20.0326 73.8918 20.127 74.0813 20.3156C74.2708 20.5043 74.3655 20.7425 74.3655 21.0303C74.3655 21.3116 74.2595 21.5578 74.0475 21.7689C73.0519 22.6386 71.8796 23.0735 70.5306 23.0735C69.0403 23.0735 67.7684 22.5491 66.7149 21.5003C65.6614 20.4515 65.1347 19.1853 65.1347 17.7017C65.1347 16.218 65.6614 14.9518 66.7149 13.903C67.7684 12.8543 69.0403 12.3299 70.5306 12.3299ZM76.5435 7.72549C76.8197 7.72549 77.0558 7.82301 77.2517 8.01806C77.4476 8.21311 77.5456 8.45132 77.5456 8.7327V16.2148L83.3076 12.4834C83.4682 12.381 83.6481 12.3299 83.8472 12.3299C83.9885 12.3299 84.1202 12.3555 84.2423 12.4066C84.3643 12.4578 84.4703 12.5297 84.5602 12.6224C84.6502 12.7152 84.7224 12.8223 84.777 12.9438C84.8316 13.0653 84.8589 13.1932 84.8589 13.3275C84.8589 13.6856 84.7305 13.951 84.4735 14.1237L80.4363 16.7328L84.5795 21.3756C84.7658 21.5802 84.8589 21.8136 84.8589 22.0758C84.8589 22.2101 84.8316 22.338 84.777 22.4595C84.7224 22.581 84.6502 22.6882 84.5602 22.7809C84.4703 22.8736 84.3643 22.9456 84.2423 22.9967C84.1202 23.0479 83.9885 23.0735 83.8472 23.0735C83.5774 23.0735 83.3526 22.9871 83.1727 22.8145L78.7211 17.836L77.5456 18.6034V22.0662C77.5456 22.3412 77.4476 22.5778 77.2517 22.7761C77.0558 22.9743 76.8197 23.0735 76.5435 23.0735C76.2609 23.0735 76.0216 22.9743 75.8257 22.7761C75.6297 22.5778 75.5318 22.3412 75.5318 22.0662V8.7327C75.5318 8.45132 75.6297 8.21311 75.8257 8.01806C76.0216 7.82301 76.2609 7.72549 76.5435 7.72549ZM91.344 12.3299C92.8215 12.3299 94.0933 12.8543 95.1597 13.903C95.6864 14.421 96.0815 14.9982 96.3448 15.6345C96.6082 16.2708 96.7399 16.9598 96.7399 17.7017C96.7399 17.9894 96.6419 18.2277 96.446 18.4163C96.2501 18.605 96.0108 18.6993 95.7282 18.6993H88.0969C88.2061 19.051 88.3667 19.3724 88.5786 19.6633C88.7906 19.9543 89.0395 20.2037 89.3254 20.4115C89.6112 20.6194 89.926 20.7808 90.2697 20.896C90.6133 21.0111 90.9715 21.0686 91.344 21.0686C91.768 21.0686 92.1566 21.0047 92.5099 20.8768C92.8632 20.7489 93.1908 20.557 93.4927 20.3012C93.6855 20.1413 93.9071 20.0582 94.1576 20.0518C94.4467 20.0518 94.6859 20.1461 94.8754 20.3348C95.0649 20.5235 95.1597 20.7617 95.1597 21.0494C95.1597 21.3308 95.0633 21.5706 94.8706 21.7689C93.8749 22.6386 92.6994 23.0735 91.344 23.0735C89.8537 23.0735 88.5819 22.5491 87.5284 21.5003C86.4749 20.4515 85.9481 19.1853 85.9481 17.7017C85.9481 16.218 86.4749 14.9518 87.5284 13.903C88.5819 12.8543 89.8537 12.3299 91.344 12.3299ZM103.244 12.3299C103.527 12.3299 103.83 12.3491 104.155 12.3874C104.479 12.4258 104.778 12.4945 105.051 12.5937C105.324 12.6928 105.55 12.8287 105.73 13.0014C105.91 13.174 106 13.3978 106 13.6728C106 13.8135 105.973 13.9446 105.918 14.0661C105.863 14.1876 105.791 14.2947 105.701 14.3875C105.611 14.4802 105.505 14.5521 105.383 14.6033C105.261 14.6545 105.13 14.68 104.988 14.68C104.866 14.68 104.725 14.6449 104.564 14.5745C104.16 14.4146 103.72 14.3347 103.244 14.3347C102.775 14.3347 102.335 14.4226 101.924 14.5985C101.513 14.7744 101.155 15.0142 100.85 15.3179C100.545 15.6217 100.304 15.9782 100.127 16.3875C99.9505 16.7968 99.8622 17.2348 99.8622 17.7017V22.0758C99.8622 22.3508 99.7642 22.5858 99.5683 22.7809C99.3724 22.9759 99.1363 23.0735 98.8601 23.0735C98.5775 23.0735 98.3382 22.9759 98.1423 22.7809C97.9463 22.5858 97.8484 22.3508 97.8484 22.0758V13.3275C97.8484 13.0525 97.9463 12.8175 98.1423 12.6224C98.3382 12.4274 98.5775 12.3299 98.8601 12.3299C99.1363 12.3299 99.3724 12.4274 99.5683 12.6224C99.7642 12.8175 99.8622 13.0525 99.8622 13.3275V13.5193C100.344 13.1356 100.867 12.8415 101.433 12.6368C101.998 12.4322 102.602 12.3299 103.244 12.3299ZM46.6723 14.3347C46.197 14.3347 45.7537 14.4242 45.3426 14.6033C44.9315 14.7824 44.575 15.0238 44.2731 15.3275C43.9712 15.6313 43.7319 15.9878 43.5552 16.3971C43.3786 16.8064 43.2903 17.2412 43.2903 17.7017C43.2903 18.1621 43.3786 18.597 43.5552 19.0062C43.7319 19.4155 43.9712 19.772 44.2731 20.0758C44.575 20.3796 44.9315 20.621 45.3426 20.8C45.7537 20.9791 46.197 21.0686 46.6723 21.0686C47.1413 21.0686 47.5813 20.9791 47.9924 20.8C48.4035 20.621 48.7616 20.378 49.0667 20.071C49.3719 19.764 49.6128 19.4075 49.7894 19.0014C49.9661 18.5954 50.0544 18.1621 50.0544 17.7017C50.0544 17.2412 49.9661 16.808 49.7894 16.4019C49.6128 15.9958 49.3719 15.6393 49.0667 15.3323C48.7616 15.0254 48.4035 14.7824 47.9924 14.6033C47.5813 14.4242 47.1413 14.3347 46.6723 14.3347ZM58.6111 14.3347C58.1357 14.3347 57.6925 14.4242 57.2814 14.6033C56.8703 14.7824 56.5138 15.0238 56.2118 15.3275C55.9099 15.6313 55.6707 15.9878 55.494 16.3971C55.3174 16.8064 55.229 17.2412 55.229 17.7017C55.229 18.1621 55.3174 18.597 55.494 19.0062C55.6707 19.4155 55.9099 19.772 56.2118 20.0758C56.5138 20.3796 56.8703 20.621 57.2814 20.8C57.6925 20.9791 58.1357 21.0686 58.6111 21.0686C59.08 21.0686 59.52 20.9791 59.9311 20.8C60.3423 20.621 60.7004 20.378 61.0055 20.071C61.3106 19.764 61.5515 19.4075 61.7282 19.0014C61.9048 18.5954 61.9931 18.1621 61.9931 17.7017C61.9931 17.2412 61.9048 16.808 61.7282 16.4019C61.5515 15.9958 61.3106 15.6393 61.0055 15.3323C60.7004 15.0254 60.3423 14.7824 59.9311 14.6033C59.52 14.4242 59.08 14.3347 58.6111 14.3347ZM91.344 14.3347C90.9779 14.3347 90.6214 14.3923 90.2745 14.5074C89.9276 14.6225 89.6096 14.784 89.3206 14.9918C89.0315 15.1996 88.781 15.449 88.569 15.74C88.357 16.031 88.1996 16.3523 88.0969 16.704H94.5912C94.482 16.3523 94.3198 16.031 94.1046 15.74C93.8894 15.449 93.6389 15.1996 93.353 14.9918C93.0672 14.784 92.7524 14.6225 92.4087 14.5074C92.0651 14.3923 91.7102 14.3347 91.344 14.3347ZM6.7552 9.45226V13.0825H2.90125V9.45226H6.7552ZM11.3099 9.45226V13.0825H7.45592V9.45226H11.3099ZM15.8646 9.45226V13.0825H12.0106V9.45226H15.8646ZM20.4192 9.45226V13.0825H16.5653V9.45226H20.4192ZM24.9739 9.45226V13.0825H21.1199V9.45226H24.9739ZM20.4192 5.096V8.72621H16.5653V5.096H20.4192ZM15.8646 5.096V8.72621H12.0106V5.096H15.8646ZM11.3099 5.096V8.72621H7.45592V5.096H11.3099ZM20.4192 0.739746V4.36996H16.5653V0.739746H20.4192Z" fill="#2396ED"/>
</g>
<defs>
<clipPath id="clip0_13_29">
<rect width="106" height="27" fill="white" transform="translate(0 0.739746)"/>
</clipPath>
</defs>
</svg>
