<svg width="106" height="36" viewBox="0 0 106 36" fill="none" xmlns="http://www.w3.org/2000/svg">
<g clip-path="url(#clip0_13_12)">
<path d="M102.698 22.1298L105.639 24.1025C104.684 25.5171 102.402 27.944 98.4552 27.944C93.5543 27.944 89.9044 24.1285 89.9044 19.2746C89.9044 14.1093 93.593 10.6052 98.0425 10.6052C102.518 10.6052 104.71 14.1872 105.42 16.1209L105.806 17.1073L94.2765 21.9092C95.1535 23.6483 96.5206 24.5308 98.4552 24.5308C100.39 24.5308 101.731 23.5704 102.698 22.1298ZM93.6575 19.0021L101.357 15.7835C100.931 14.7063 99.6675 13.9406 98.1585 13.9406C96.2369 13.9406 93.5672 15.6537 93.6575 19.0021Z" fill="#FF302F"/>
<path d="M84.3459 1.76709H88.0602V27.1523H84.3459V1.76709Z" fill="#20B15A"/>
<path d="M78.4907 11.2801H82.076V26.6982C82.076 33.0964 78.323 35.731 73.8864 35.731C69.7078 35.731 67.1929 32.9017 66.2514 30.6046L69.5401 29.2289C70.1334 30.6435 71.5649 32.3177 73.8864 32.3177C76.7367 32.3177 78.4907 30.5397 78.4907 27.2173V25.9714H78.3617C77.5105 27.0096 75.8855 27.9441 73.8219 27.9441C69.5143 27.9441 65.5678 24.1674 65.5678 19.3006C65.5678 14.4079 69.5143 10.5923 73.8219 10.5923C75.8726 10.5923 77.5105 11.5137 78.3617 12.526H78.4907V11.2801ZM78.7486 19.3006C78.7486 16.2378 76.7238 14.0055 74.1444 14.0055C71.5392 14.0055 69.3467 16.2378 69.3467 19.3006C69.3467 22.3245 71.5392 24.5178 74.1444 24.5178C76.7238 24.5308 78.7486 22.3245 78.7486 19.3006Z" fill="#3686F7"/>
<path d="M45.1775 19.2356C45.1775 24.2322 41.3084 27.905 36.5623 27.905C31.8162 27.905 27.9471 24.2192 27.9471 19.2356C27.9471 14.2131 31.8162 10.5532 36.5623 10.5532C41.3084 10.5532 45.1775 14.2131 45.1775 19.2356ZM41.4116 19.2356C41.4116 16.1208 39.1675 13.9795 36.5623 13.9795C33.9571 13.9795 31.713 16.1208 31.713 19.2356C31.713 22.3244 33.9571 24.4917 36.5623 24.4917C39.1675 24.4917 41.4116 22.3244 41.4116 19.2356Z" fill="#FF302F"/>
<path d="M63.9943 19.2746C63.9943 24.2712 60.1252 27.944 55.3791 27.944C50.633 27.944 46.7639 24.2712 46.7639 19.2746C46.7639 14.2521 50.633 10.6052 55.3791 10.6052C60.1252 10.6052 63.9943 14.2391 63.9943 19.2746ZM60.2155 19.2746C60.2155 16.1599 57.9714 14.0185 55.3662 14.0185C52.761 14.0185 50.5169 16.1599 50.5169 19.2746C50.5169 22.3634 52.761 24.5308 55.3662 24.5308C57.9843 24.5308 60.2155 22.3504 60.2155 19.2746Z" fill="#FFBA40"/>
<path d="M13.7862 24.1414C8.38233 24.1414 4.15211 19.7548 4.15211 14.3169C4.15211 8.87909 8.38233 4.49247 13.7862 4.49247C16.7009 4.49247 18.8289 5.64753 20.4024 7.12704L22.9947 4.51843C20.8022 2.40299 17.8745 0.793701 13.7862 0.793701C6.38329 0.793701 0.154026 6.86747 0.154026 14.3169C0.154026 21.7664 6.38329 27.8402 13.7862 27.8402C17.7843 27.8402 20.8022 26.5164 23.1623 24.0505C25.587 21.6106 26.335 18.1844 26.335 15.4071C26.335 14.5376 26.2318 13.6421 26.1158 12.9802H13.7862V16.5881H22.5691C22.3111 18.8463 21.6018 20.3907 20.5571 21.4419C19.2932 22.7268 17.2942 24.1414 13.7862 24.1414Z" fill="#3686F7"/>
</g>
<defs>
<clipPath id="clip0_13_12">
<rect width="106" height="35" fill="white" transform="translate(0 0.739746)"/>
</clipPath>
</defs>
</svg>
