<svg width="146" height="44" viewBox="0 0 146 44" fill="none" xmlns="http://www.w3.org/2000/svg">
<path d="M63.6719 22.5469C63.6719 24.3073 63.4479 25.9115 63 27.3594C62.5625 28.7969 61.901 30.0365 61.0156 31.0781C60.1302 32.1094 59.0208 32.9062 57.6875 33.4688C56.3542 34.0312 54.7917 34.3125 53 34.3125C51.1771 34.3125 49.5938 34.0312 48.25 33.4688C46.9167 32.9062 45.8073 32.1042 44.9219 31.0625C44.0469 30.0208 43.3906 28.776 42.9531 27.3281C42.5156 25.8802 42.2969 24.276 42.2969 22.5156C42.2969 20.1615 42.6823 18.1094 43.4531 16.3594C44.2344 14.599 45.4167 13.2344 47 12.2656C48.5938 11.2865 50.6042 10.7969 53.0312 10.7969C55.4062 10.7969 57.3802 11.2812 58.9531 12.25C60.526 13.2188 61.7031 14.5833 62.4844 16.3438C63.276 18.0938 63.6719 20.1615 63.6719 22.5469ZM46.2344 22.5469C46.2344 24.3073 46.474 25.8333 46.9531 27.125C47.4323 28.4062 48.1667 29.3958 49.1562 30.0938C50.1562 30.7812 51.4375 31.125 53 31.125C54.5729 31.125 55.8542 30.7812 56.8438 30.0938C57.8333 29.3958 58.5625 28.4062 59.0312 27.125C59.5 25.8333 59.7344 24.3073 59.7344 22.5469C59.7344 19.8698 59.1979 17.776 58.125 16.2656C57.0625 14.7448 55.3646 13.9844 53.0312 13.9844C51.4688 13.9844 50.1823 14.3281 49.1719 15.0156C48.1719 15.7031 47.4323 16.6875 46.9531 17.9688C46.474 19.2396 46.2344 20.7656 46.2344 22.5469ZM75.4781 16.375C77.5302 16.375 79.176 17.125 80.4156 18.625C81.6656 20.125 82.2906 22.3542 82.2906 25.3125C82.2906 27.2708 81.999 28.9219 81.4156 30.2656C80.8427 31.599 80.0354 32.6094 78.9937 33.2969C77.9625 33.974 76.7594 34.3125 75.3844 34.3125C74.5094 34.3125 73.749 34.1979 73.1031 33.9688C72.4573 33.7396 71.9052 33.4427 71.4469 33.0781C70.9885 32.7031 70.6031 32.2969 70.2906 31.8594H70.0719C70.124 32.276 70.1708 32.7396 70.2125 33.25C70.2646 33.75 70.2906 34.2083 70.2906 34.625V41.6719H66.6031V16.7031H69.6031L70.1187 19.0938H70.2906C70.6135 18.6042 71.0042 18.151 71.4625 17.7344C71.9312 17.3177 72.4937 16.9896 73.15 16.75C73.8167 16.5 74.5927 16.375 75.4781 16.375ZM74.4937 19.375C73.4833 19.375 72.6708 19.5781 72.0562 19.9844C71.4521 20.3802 71.0094 20.9792 70.7281 21.7812C70.4573 22.5833 70.3115 23.5885 70.2906 24.7969V25.3125C70.2906 26.5938 70.4208 27.6823 70.6812 28.5781C70.9521 29.4635 71.3948 30.1406 72.0094 30.6094C72.6344 31.0677 73.4781 31.2969 74.5406 31.2969C75.4365 31.2969 76.176 31.0521 76.7594 30.5625C77.3531 30.0729 77.7958 29.375 78.0875 28.4688C78.3792 27.5625 78.525 26.4948 78.525 25.2656C78.525 23.401 78.1917 21.9531 77.525 20.9219C76.8687 19.8906 75.8583 19.375 74.4937 19.375ZM91.8312 16.375C93.3729 16.375 94.6958 16.6927 95.8 17.3281C96.9042 17.9635 97.7531 18.8646 98.3469 20.0312C98.9406 21.1979 99.2375 22.5938 99.2375 24.2188V26.1875H87.6906C87.7323 27.8646 88.1802 29.1562 89.0344 30.0625C89.899 30.9688 91.1073 31.4219 92.6594 31.4219C93.7635 31.4219 94.7531 31.3177 95.6281 31.1094C96.5135 30.8906 97.425 30.5729 98.3625 30.1562V33.1406C97.4979 33.5469 96.6177 33.8438 95.7219 34.0312C94.826 34.2188 93.7531 34.3125 92.5031 34.3125C90.8052 34.3125 89.3104 33.9844 88.0187 33.3281C86.7375 32.6615 85.7323 31.6719 85.0031 30.3594C84.2844 29.0469 83.925 27.4167 83.925 25.4688C83.925 23.5312 84.2531 21.8854 84.9094 20.5312C85.5656 19.1771 86.4875 18.1458 87.675 17.4375C88.8625 16.7292 90.2479 16.375 91.8312 16.375ZM91.8312 19.1406C90.675 19.1406 89.7375 19.5156 89.0187 20.2656C88.3104 21.0156 87.8937 22.1146 87.7687 23.5625H95.6437C95.6333 22.6979 95.4875 21.9323 95.2062 21.2656C94.9354 20.599 94.5187 20.0781 93.9562 19.7031C93.4042 19.3281 92.6958 19.1406 91.8312 19.1406ZM110.794 16.375C112.742 16.375 114.257 16.8802 115.341 17.8906C116.434 18.8906 116.981 20.5 116.981 22.7188V34H113.309V23.4062C113.309 22.0625 113.033 21.0573 112.481 20.3906C111.929 19.7135 111.075 19.375 109.919 19.375C108.242 19.375 107.075 19.8906 106.419 20.9219C105.773 21.9531 105.45 23.4479 105.45 25.4062V34H101.778V16.7031H104.638L105.153 19.0469H105.356C105.731 18.4427 106.195 17.9479 106.747 17.5625C107.309 17.1667 107.934 16.8698 108.622 16.6719C109.32 16.474 110.044 16.375 110.794 16.375ZM144.469 34H140.203L134.453 24.6406L128.672 34H124.656L132.25 22.1562L125.172 11.1562H129.312L134.625 19.8125L139.906 11.1562H143.922L136.812 22.2656L144.469 34Z" fill="white"/>
<path d="M28.9211 21.5121C35.9467 31.2781 25.1575 38.109 15.5785 38.109C5.99951 38.109 2.57139 32.6025 1.08628 25.1594C-0.894715 15.231 8.8516 5.8916 18.4306 5.8916C28.0096 5.8916 24.6299 15.5471 28.9211 21.5121Z" fill="url(#paint0_linear_2_88)"/>
<defs>
<linearGradient id="paint0_linear_2_88" x1="1.08618" y1="25.1594" x2="35.7748" y2="25.1594" gradientUnits="userSpaceOnUse">
<stop stop-color="#EB3349"/>
<stop offset="1" stop-color="#F45C43"/>
</linearGradient>
</defs>
</svg>
