<svg width="160" height="25" viewBox="0 0 160 25" fill="none" xmlns="http://www.w3.org/2000/svg">
<g clip-path="url(#clip0_13_33)">
<path d="M12 1.00231C18.6133 1.00231 24 6.30611 24 12.8702C24 19.4343 18.6133 24.7381 12 24.7381C5.38667 24.7381 0 19.4868 0 12.8702C0 6.25359 5.38667 1.00231 12 1.00231ZM106.08 0.739746V21.5348C106.08 23.1102 106.72 23.5303 107.947 23.8454L108 24.108H101.227V21.5348C100.427 23.4253 98.7733 24.5806 96.64 24.5806C93.0133 24.5806 90.6133 21.3248 90.6133 16.4936C90.6133 13.7629 91.4133 11.4524 92.9067 9.71944C94.3467 8.03903 96.32 7.14631 98.5067 7.14631C99.5733 7.14631 100.48 7.35636 101.227 7.82898V4.99328C101.227 4.36313 101.067 3.94303 100.747 3.62795C100.32 3.26036 99.6267 3.10282 98.56 3.20785H98.5067V2.94528L106.08 0.739746ZM131.787 7.19882V21.5348C131.787 23.1102 132.427 23.5303 133.653 23.8454V24.108H126.88V21.4823C126.08 23.3728 124.32 24.5806 122.347 24.5806C120 24.5806 118.507 23.5303 117.92 21.4823L117.813 20.9572C117.707 20.4321 117.653 19.9069 117.653 19.3818V11.7149C117.653 10.0345 117.28 9.50939 115.787 9.40436H115.733V9.1418L122.507 7.19882V19.2768C122.507 21.0622 123.307 22.06 124.8 22.06C125.707 22.06 126.453 21.5873 126.88 20.7996V11.7149C126.88 9.982 126.56 9.45687 125.333 9.35185H125.28V9.08928L131.787 7.19882ZM82.88 7.14631C84.6933 7.14631 86.4533 7.77646 87.6267 8.87923C88.96 10.1395 89.6533 11.9775 89.7067 14.3931V14.4456H79.52C79.3067 17.9114 81.4933 20.7471 84.3733 20.8522C86.4533 21.0097 88.2667 19.7494 89.28 17.7014L89.5467 17.8064C88.96 21.6398 86.6667 24.5281 82.6667 24.5281C78.1333 24.5281 75.5733 20.7996 75.4667 16.126V14.9182C75.68 12.8702 76.32 11.0323 77.44 9.66693C78.1333 8.82672 78.9333 8.19657 79.8933 7.77646C80.6933 7.35636 81.8667 7.14631 82.8267 7.14631H82.88ZM153.44 7.19882C156.32 7.19882 158.08 8.98426 158.08 12.03V21.7974C158.08 22.9527 158.613 23.5303 159.947 23.8454H160V24.108H153.173V12.1875C153.173 10.2971 152.48 9.35185 151.04 9.35185C149.867 9.35185 149.28 10.1921 148.96 10.9272C149.013 11.2948 149.067 11.6624 149.067 12.03V21.9549C149.067 23.1627 149.44 23.5828 150.507 23.8454H150.56V24.108H144.213V12.1875C144.213 10.2971 143.467 9.35185 142.08 9.35185C140.96 9.35185 140.373 10.1395 140.107 10.7697V22.0074C140.107 23.2152 140.48 23.6353 141.547 23.8979H141.6V24.1605H135.253V11.6624C135.253 9.982 134.827 9.45687 133.387 9.35185H133.333V9.08928L140.107 7.25134V10.0345C140.8 8.24908 142.4 7.19882 144.427 7.19882C146.72 7.19882 148.32 8.30159 148.853 10.2971C149.547 8.40662 151.307 7.19882 153.44 7.19882ZM56.16 1.79L62.5067 16.4411L68.8533 1.79H75.68L75.6267 2.05257L75.5492 2.06955C74.3731 2.33348 73.76 2.76652 73.76 4.20559V22.06C73.8667 23.2152 74.5067 23.5828 75.6267 23.8454H75.68V24.108H66.9867V23.8454H67.04C68.16 23.5828 68.8 23.2152 68.9067 22.06V4.67821L60.5333 24.0554H60.0533L51.8933 5.20334V21.6398C51.8933 23.1102 52.5333 23.5303 53.76 23.7929H53.8133V24.0554H48.8V23.7929H48.8533C50.08 23.5303 50.72 23.1102 50.72 21.6398V4.20559C50.72 2.73523 50.08 2.31513 48.8533 2.05257H48.8V1.79H56.16ZM114.347 7.19882V21.5348L114.347 21.6318C114.374 23.1277 115.012 23.5369 116.213 23.8454L116.267 24.108H109.493V11.7149C109.493 10.0345 109.12 9.50939 107.627 9.40436H107.573V9.1418L114.347 7.19882ZM31.2 1.68498C34.4533 1.68498 37.1733 6.72621 37.1733 12.8702C37.1733 19.0667 34.5067 24.0554 31.2 24.0554C27.8933 24.0554 25.2267 19.0667 25.2267 12.8702C25.2267 6.6737 27.8933 1.68498 31.2 1.68498ZM40.3733 2.84026C41.6 2.84026 42.5067 7.35636 42.5067 12.8702C42.5067 18.3841 41.5467 22.9002 40.3733 22.9002C39.2117 22.9002 38.2592 18.4739 38.2403 13.0353L38.24 12.8702C38.24 7.35636 39.2 2.84026 40.3733 2.84026ZM99.3067 8.09154C97.1733 8.09154 95.84 10.8747 95.84 15.1808C95.84 17.2288 96.2133 19.0142 96.8533 20.222C97.44 21.3773 98.2933 22.0074 99.2533 22.0074C100.213 22.0074 100.907 21.5873 101.227 20.7996V9.24682C100.853 8.51164 100.16 8.09154 99.3067 8.09154ZM82.8267 8.14405C80.9067 8.14405 79.7867 10.4021 79.6267 13.5529V13.6054H85.44C85.5467 11.1373 85.12 9.50939 84.32 8.7217C83.8933 8.35411 83.4133 8.14405 82.8267 8.14405ZM111.733 0.897285C113.28 0.897285 114.453 2.05257 114.453 3.57544C114.453 5.09831 113.28 6.25359 111.733 6.25359C110.187 6.25359 109.013 5.09831 109.013 3.57544C109.013 2.05257 110.187 0.897285 111.733 0.897285Z" fill="white"/>
</g>
<defs>
<clipPath id="clip0_13_33">
<rect width="160" height="24" fill="white" transform="translate(0 0.739746)"/>
</clipPath>
</defs>
</svg>
