<svg width="101" height="28" viewBox="0 0 101 28" fill="none" xmlns="http://www.w3.org/2000/svg">
<path d="M67.2 0.739746V20.3447C69.638 20.4572 72.0699 20.5932 74.4948 20.7537V24.9101C70.6614 24.6567 66.8119 24.4633 62.9464 24.3313V0.739746H67.2ZM101 0.742069L95.4614 13.4779L100.999 27.6505L100.992 27.6532C99.3795 27.4249 97.7644 27.2095 96.1446 27.0029L93.035 19.0484L89.8959 26.2645C88.4082 26.1016 86.9185 25.9474 85.4254 25.803L90.8249 13.3927L85.88 0.742069H90.4813L93.2499 7.82153L96.3285 0.742069H101ZM48.3485 24.1253L48.3483 0.741994H60.2218V4.93584H52.6018V10.3713H58.3673V14.5277H52.6018V24.1244L48.3485 24.1253ZM32.466 4.93619L32.4659 0.741775H45.6217V4.9359H41.1704V24.2391C39.7507 24.2759 38.3325 24.3196 36.9172 24.3726V4.93619H32.466ZM17.9252 25.581V0.742479H29.7394V4.93633H22.178V10.6172C23.9151 10.5952 26.3851 10.5702 27.9217 10.5739V14.7307C25.9982 14.707 23.827 14.7569 22.178 14.7732V21.066C24.6911 20.87 27.2118 20.6984 29.7394 20.5536V24.7105C25.7834 24.9365 21.8452 25.2277 17.9252 25.581ZM9.5814 15.9721L9.58112 0.741795H13.8346V25.9728C12.2797 26.1314 10.7278 26.3002 9.1785 26.4784L4.25323 12.4445V27.0796C2.83268 27.2631 1.41503 27.4544 0 27.6541V0.742069H4.0422L9.5814 15.9721ZM78.0038 25.1609V25.1609V0.742096H82.2573V25.5093C80.8413 25.3843 79.424 25.2686 78.0038 25.1609Z" fill="#DB202C"/>
</svg>
