<svg width="106" height="24" viewBox="0 0 106 24" fill="none" xmlns="http://www.w3.org/2000/svg">
<g clip-path="url(#clip0_13_20)">
<path d="M52.88 6.48492C48.7408 6.48492 45.7564 9.07025 45.7564 12.9482C45.7564 16.8262 49.1157 19.4116 53.255 19.4116C55.7557 19.4116 57.9603 18.4636 59.3251 16.8657L56.4568 15.2786C55.6995 16.0722 54.5485 16.5354 53.255 16.5354C51.459 16.5354 49.9331 15.6377 49.3669 14.2014H59.8725C59.9549 13.7992 60.0037 13.3827 60.0037 12.9447C60.0037 9.07025 57.0192 6.48492 52.88 6.48492ZM49.3332 11.6915C49.8019 10.2588 51.0841 9.35751 52.8763 9.35751C54.6722 9.35751 55.9544 10.2588 56.4194 11.6915H49.3332ZM93.2524 6.48492C89.1132 6.48492 86.1287 9.07025 86.1287 12.9482C86.1287 16.8262 89.4881 19.4116 93.6273 19.4116C96.1281 19.4116 98.3327 18.4636 99.6974 16.8657L96.8292 15.2786C96.0719 16.0722 94.9208 16.5354 93.6273 16.5354C91.8314 16.5354 90.3055 15.6377 89.7393 14.2014H100.245C100.327 13.7992 100.376 13.3827 100.376 12.9447C100.376 9.07025 97.3916 6.48492 93.2524 6.48492ZM89.7093 11.6915C90.178 10.2588 91.4602 9.35751 93.2524 9.35751C95.0483 9.35751 96.3306 10.2588 96.7955 11.6915H89.7093ZM75.0758 12.9482C75.0758 15.1027 76.5456 16.539 78.8251 16.539C80.3698 16.539 81.5284 15.8675 82.1245 14.7723L85.004 16.363C83.8117 18.2661 81.5771 19.4116 78.8251 19.4116C74.6822 19.4116 71.7015 16.8262 71.7015 12.9482C71.7015 9.07025 74.6859 6.48492 78.8251 6.48492C81.5771 6.48492 83.8079 7.63036 85.004 9.53345L82.1245 11.1242C81.5284 10.029 80.3698 9.35751 78.8251 9.35751C76.5493 9.35751 75.0758 10.7938 75.0758 12.9482ZM106 2.53511V19.0525H102.626V2.53511H106ZM13.8536 0.739746L27.7073 23.7204H0L13.8536 0.739746ZM48.4896 2.53511L38.1003 19.7706L27.711 2.53511H31.6065L38.1003 13.3073L44.5941 2.53511H48.4896ZM70.5767 6.84399V10.3234C70.2018 10.2193 69.8043 10.1475 69.3769 10.1475C67.1986 10.1475 65.6276 11.5838 65.6276 13.7382V19.0525H62.2533V6.84399H65.6276V10.1475C65.6276 8.32338 67.8435 6.84399 70.5767 6.84399Z" fill="white"/>
</g>
<defs>
<clipPath id="clip0_13_20">
<rect width="106" height="23" fill="white" transform="translate(0 0.739746)"/>
</clipPath>
</defs>
</svg>
