<svg width="107" height="26" viewBox="0 0 107 26" fill="none" xmlns="http://www.w3.org/2000/svg">
<g clip-path="url(#clip0_13_23)">
<path d="M33.4143 4.60408C33.0155 3.08412 31.8642 1.89679 30.3903 1.4855C27.7388 0.739746 17.0669 0.739746 17.0669 0.739746C17.0669 0.739746 6.39506 0.762345 3.74353 1.50809C2.26964 1.91939 1.1183 3.10672 0.719475 4.62668C-0.0825572 9.48535 -0.393728 16.8886 0.741388 21.5529C1.14022 23.0729 2.29156 24.2602 3.76544 24.6715C6.41697 25.4173 17.0888 25.4173 17.0888 25.4173C17.0888 25.4173 27.7607 25.4173 30.4122 24.6715C31.8861 24.2602 33.0374 23.0729 33.4362 21.5529C34.2821 16.6875 34.5429 9.28874 33.4143 4.60408Z" fill="#FF0000"/>
<path d="M13.6704 18.3666L22.5234 13.0786L13.6704 7.79053V18.3666Z" fill="white"/>
<path d="M102.661 7.9034C103.822 7.9034 104.699 8.12939 105.312 8.55876C105.926 8.98813 106.364 9.66608 106.627 10.5926C106.89 11.5192 107 12.7847 107 14.4118V17.0558H101.368V17.8693L101.456 20.1066C101.521 20.6037 101.631 20.9653 101.806 21.1913C101.982 21.4173 102.266 21.5303 102.639 21.5303C103.143 21.5303 103.494 21.3269 103.669 20.9201C103.866 20.5133 103.954 19.8354 103.976 18.9089L106.89 19.0896C106.912 19.2252 106.912 19.406 106.912 19.632C106.912 21.0557 106.539 22.1178 105.773 22.8184C105.006 23.5189 103.954 23.8805 102.573 23.8805C100.908 23.8805 99.7463 23.3382 99.0889 22.276C98.4315 21.2139 98.0809 19.5416 98.0809 17.3044V14.5699C98.1554 10.7282 98.8106 7.9147 102.661 7.9034ZM62.1429 8.19718V19.519C62.1429 20.197 62.2086 20.6941 62.362 20.9879C62.6732 21.6161 63.4796 21.4557 63.9179 21.1461C64.1709 20.9697 64.3748 20.7282 64.5095 20.4455V8.19718H67.8623V23.6319H65.2327L64.9478 21.7337H64.882C64.1589 23.1574 63.0851 23.8805 61.6608 23.8805C59.4684 23.8748 58.9322 22.246 58.8045 20.5918L58.7961 20.475C58.7794 20.2219 58.7716 19.9692 58.7682 19.7224V8.19718H62.1429ZM79.4326 8.19718V19.519C79.4326 20.197 79.4983 20.6941 79.6517 20.9879C79.9629 21.6161 80.7693 21.4557 81.2076 21.1461C81.4606 20.9697 81.6645 20.7282 81.7992 20.4455V8.19718H85.152V23.6319H82.5224L82.2375 21.7337H82.1718C81.4486 23.1574 80.3748 23.8805 78.9505 23.8805C76.7581 23.8748 76.2219 22.246 76.0942 20.5918L76.0858 20.475C76.0691 20.2219 76.0613 19.9692 76.0579 19.7224V8.19718H79.4326ZM52.4133 7.9034C53.509 7.9034 54.4074 8.12939 55.0648 8.60396C55.7222 9.07852 56.2262 9.80167 56.533 10.796C56.8398 11.7903 56.9932 13.1236 56.9932 14.7733V17.0106C56.9932 18.6603 56.8398 19.971 56.533 20.9653C56.2262 21.9596 55.7441 22.6828 55.0648 23.1574C54.3855 23.6093 53.4651 23.8579 52.3256 23.8579C51.1423 23.8805 50.2219 23.6319 49.5426 23.18C48.8633 22.7054 48.3812 21.9822 48.0963 20.9879C47.8115 19.9936 47.68 18.6829 47.68 17.0332V14.7959C47.68 13.1462 47.8334 11.7903 48.1621 10.796C48.4908 9.77907 48.9948 9.05592 49.696 8.60396C50.3973 8.15199 51.2957 7.9034 52.4133 7.9034ZM90.4112 1.71143V9.84687H90.4331C90.7399 9.25931 91.1344 8.78474 91.6822 8.42317C92.1938 8.06829 92.7967 7.87941 93.4133 7.88081C94.2241 7.88081 94.8377 8.10679 95.2979 8.53616C95.7581 8.98813 96.0868 9.68868 96.284 10.6604C96.4751 11.6018 96.5839 12.9037 96.5905 14.5456L96.5908 14.7055V17.1462C96.5908 19.4286 96.3059 21.1235 95.78 22.2082C95.2322 23.293 94.3995 23.8353 93.26 23.8353C92.6245 23.8353 92.0547 23.6771 91.5288 23.3833C91.0633 23.1036 90.6779 22.7027 90.4108 22.2214L90.3674 22.1404H90.3016L89.951 23.6093H87.168V1.71143H90.4112ZM77.0002 2.50237V5.30458H73.6693V23.6319H70.3823V5.30458H67.0296V2.50237H77.0002ZM40.8649 2.50237L40.8668 2.51088C40.8989 2.65786 41.342 4.68913 41.8292 7.05559L41.8677 7.24308C41.887 7.33715 41.9064 7.43167 41.9258 7.52656L41.9646 7.7168C41.9711 7.74858 41.9776 7.78039 41.9841 7.81223L42.0229 8.0036C42.0294 8.03554 42.0359 8.06751 42.0424 8.0995L42.0812 8.29162L42.1377 8.57242C42.4666 10.2112 42.7807 11.8547 42.9686 13.0333H43.0563C43.2364 11.9761 43.4978 10.6232 43.7766 9.24204L43.8497 8.88127C43.8864 8.70074 43.9233 8.52012 43.9603 8.34L44.0178 8.06032C44.5543 5.45833 45.088 3.02752 45.1873 2.57683L45.1938 2.54772C45.2003 2.51785 45.2038 2.50237 45.2038 2.50237H48.5565L44.6779 16.762V23.6093H41.3689V16.7846H41.347L37.5122 2.50237H40.8649ZM52.3476 10.2988C51.8874 10.2988 51.5806 10.5474 51.3834 11.0672C51.1861 11.587 51.0985 12.3779 51.0985 13.4852V18.2987C51.0985 19.4286 51.1861 20.2648 51.3615 20.7619C51.5368 21.2591 51.8655 21.5077 52.3476 21.5077C52.8077 21.5077 53.1364 21.2591 53.3337 20.7619C53.5309 20.2648 53.6185 19.4286 53.6185 18.2987V13.4852C53.6185 12.3779 53.5309 11.5644 53.3337 11.0672C53.1364 10.5474 52.8077 10.2988 52.3476 10.2988ZM91.0029 10.7508C90.7358 11.005 90.5458 11.3189 90.4328 11.7109L90.4112 11.7903V20.5585C90.6829 21.0331 91.0686 21.3495 91.7479 21.3721C92.0985 21.3721 92.3834 21.2365 92.6025 20.9653C92.8217 20.6941 92.9751 20.2422 93.0627 19.6094C93.1469 19.002 93.1906 18.1654 93.194 17.0998L93.1942 16.9654V14.9541C93.1942 13.7338 93.1504 12.8073 93.0846 12.1519C92.997 11.4966 92.8874 11.022 92.6902 10.7508C92.3089 10.1858 91.485 10.1926 91.0029 10.7508ZM102.595 10.231C102.223 10.2536 101.96 10.3666 101.806 10.57C101.631 10.796 101.521 11.135 101.456 11.6321C101.391 12.1194 101.369 13.822 101.368 13.8899L101.368 14.9993H103.822L103.822 14.0209L103.822 14.0397C103.821 14.3818 103.814 13.8412 103.799 13.1776L103.797 13.0885C103.783 12.5052 103.763 11.8549 103.735 11.6321C103.669 11.1124 103.559 10.7508 103.384 10.5474C103.209 10.344 102.946 10.231 102.595 10.231Z" fill="white"/>
</g>
<defs>
<clipPath id="clip0_13_23">
<rect width="107" height="25" fill="white" transform="translate(0 0.739746)"/>
</clipPath>
</defs>
</svg>
